<?xml version="1.0" encoding="UTF-8"?><svg id="Layer_2" xmlns="http://www.w3.org/2000/svg" viewBox="0 0 2288.61 506.13"><defs><style>.cls-1{fill:#57891d;}</style></defs><g id="Layer_1-2"><path class="cls-1" d="M1053.84,254.22c0,72.69-42.06,118.4-102.4,118.4-36.12,0-64-13.26-80.92-39.77v145.83h-55.32V138.56h55.32v36.57c17.37-26.51,46.17-39.77,83.66-39.77,56.69,0,99.66,47.09,99.66,118.86ZM995.77,254.22c0-46.63-28.34-69.95-64.46-69.95s-60.8,23.32-60.8,69.95,26.06,69.49,60.35,69.49c36.12,0,64.91-22.86,64.91-69.49Z"/><path class="cls-1" d="M1094.06,368.05V27.93h55.31v340.13h-55.31Z"/><path class="cls-1" d="M1426.87,138.56v229.5h-55.31v-34.74c-17.83,25.6-46.18,37.94-82.29,37.94-57.14,0-100.12-47.09-100.12-118.41s42.06-118.86,102.86-118.86c34.75,0,62.17,12.34,79.55,37.94v-33.37h55.31ZM1371.55,235.93c-5.49-35.2-29.26-53.03-59.43-53.03-35.66,0-64.92,23.32-64.92,69.95s28.34,69.49,64.92,69.49c29.71,0,53.94-17.37,59.43-53.03v-33.37Z"/><path class="cls-1" d="M1687.45,329.19c-21.03,30.63-58.52,46.17-96.92,46.17-61.26,0-124.35-39.77-124.35-122.06s59.89-121.61,119.32-121.61c38.86,0,76.8,16,99.2,45.72l-33.37,30.17c-15.09-18.74-38.86-28.8-62.17-28.8-35.2,0-68.57,23.32-68.57,74.52s37.94,71.77,74.52,71.77c24.23,0,47.55-9.6,58.52-26.06l33.83,30.17Z"/><path class="cls-1" d="M1822.77,133.99c59.89,0,119.78,42.06,114.29,122.06v16h-173.27c7.32,36.57,37.03,52.12,67.66,52.12,23.77,0,48-9.14,64-25.14l33.83,30.17c-26.97,29.72-66.29,45.26-104.23,45.26-59.89,0-117.03-38.86-117.03-121.15s57.15-119.32,114.75-119.32ZM1883.57,229.08c-9.6-29.26-32.91-42.97-59.43-42.97-28.8,0-50.74,14.63-58.52,42.97h117.95Z"/><path class="cls-1" d="M1976.83,368.05V27.93h55.31v340.13h-55.31Z"/><path class="cls-1" d="M2288.61,138.56l-126.18,342.87h-58.52l46.17-123.43-89.15-219.44h62.17l54.86,144.92,53.95-144.92h56.69Z"/><polygon class="cls-1" points="274.21 312.78 369.36 147.84 165.76 147.84 376.98 506.13 196.18 506.13 0 161.91 78.32 0 455.93 0 537.91 169.52 453.05 312.78 274.21 312.78"/></g></svg>